%
M48
M72
T01C0.0236
T02C0.0315
T03C0.0320
T04C0.0433
T05C0.1260
%
T01
X88586Y6515
X88586Y7515
X88586Y9070
X88586Y10070
X90348Y15865
X93348Y13865
X90348Y13865
X93348Y14865
X90348Y16865
X91287Y25839
X92396Y20060
X93348Y16865
X93348Y15865
X90348Y14865
X93441Y20050
X74986Y24805
X75986Y24805
X77486Y24805
X78486Y24805
X89515Y23280
X91287Y23280
X92396Y23060
X89515Y25839
X80086Y24805
X81086Y24805
X93441Y23050
T02
X73994Y9535
X82110Y16315
X83110Y17565
X90049Y4497
X86096Y17550
X81110Y16315
X91033Y4497
X92018Y4497
X80096Y3515
X85199Y10535
X86199Y10535
X86199Y9535
X85199Y9535
X85199Y6535
X86199Y6535
X85199Y11535
X92916Y6137
X83110Y16315
X92916Y7122
X86199Y11535
X80096Y13554
X86096Y16300
X88096Y16300
X88096Y17550
X87096Y17550
X87096Y16300
X82110Y17565
X81110Y17565
X85938Y24403
X82986Y24403
X83970Y24403
X84954Y24403
X86923Y24403
X87907Y24403
X86199Y8535
X85199Y8535
X85199Y7535
X86199Y7535
X89065Y4497
X73994Y8535
T03
X78106Y19225
X84106Y19225
X85106Y19225
X79106Y22225
X87106Y19225
X86106Y19225
X83106Y19225
X91106Y19225
X90106Y19225
X89106Y19225
X88106Y19225
X83106Y22225
X80106Y19225
X79106Y19225
X81106Y19225
X82106Y19225
X84106Y22225
X85106Y22225
X90106Y22225
X89106Y22225
X88106Y22225
X82106Y22225
X81106Y22225
X80106Y22225
X78106Y22225
X86106Y22225
X87106Y22225
X91106Y22225
T04
X76921Y15505
X91896Y7145
X74991Y24225
T05
X73321Y2695
X73321Y26215
X93886Y26215
X93891Y2700
M30
